<svg xmlns="http://www.w3.org/2000/svg" viewBox="0 0 614.58 613.85"><defs><style>.cls-1{opacity:0.04;}.cls-2{fill:#377bbf;}</style></defs><g id="Vrstva_2" data-name="Vrstva 2"><g id="Základní"><g class="cls-1"><path class="cls-2" d="M253.09,553.48a2.21,2.21,0,0,1-2.21-2.19l-.19-27.62a2.22,2.22,0,0,1,2.2-2.23l27.62-.19h0a2.21,2.21,0,0,1,0,4.42l-25.41.18.17,25.41a2.2,2.2,0,0,1-2.19,2.22Z"/><path class="cls-2" d="M194.23,283.06a2.21,2.21,0,0,1-.69-4.31l7-2.29-2.29-7a2.21,2.21,0,1,1,4.2-1.38l3,9.06A2.21,2.21,0,0,1,204,280l-9.06,3A2.37,2.37,0,0,1,194.23,283.06Z"/><path class="cls-2" d="M122.45,553.58a2.13,2.13,0,0,1-.55-.07,2.21,2.21,0,0,1-1.59-2.69l2.37-9.24a2.21,2.21,0,0,1,1-1.35,2.18,2.18,0,0,1,1.67-.24l9.25,2.37a2.21,2.21,0,0,1-1.1,4.28l-7.11-1.82-1.82,7.1A2.2,2.2,0,0,1,122.45,553.58Z"/><path class="cls-2" d="M406.73,574.3a2.21,2.21,0,0,1-2.17-1.84l-2.64-15.32-15.32,2.64a2.21,2.21,0,1,1-.75-4.35l17.5-3a2.21,2.21,0,0,1,2.55,1.81l3,17.49a2.2,2.2,0,0,1-1.8,2.55A1.64,1.64,0,0,1,406.73,574.3Z"/><path class="cls-2" d="M519.14,351.38A2.2,2.2,0,0,1,517,349.5l-1.05-6.94-6.93,1a2.21,2.21,0,1,1-.66-4.37l9.12-1.37a2.2,2.2,0,0,1,2.51,1.86l1.38,9.12a2.2,2.2,0,0,1-1.86,2.51Z"/><path class="cls-2" d="M67.34,251.81a2.22,2.22,0,0,1-2.15-1.69l-1.41-5.88-5.88,1.41a2.21,2.21,0,0,1-1-4.3l8-1.93a2.22,2.22,0,0,1,2.67,1.63l1.93,8a2.22,2.22,0,0,1-1.63,2.67A2.37,2.37,0,0,1,67.34,251.81Z"/><path class="cls-2" d="M448.58,29.9a2.2,2.2,0,0,1-2.15-1.74l-2.69-12.34a2.23,2.23,0,0,1,.31-1.67,2.16,2.16,0,0,1,1.39-1l12.34-2.68a2.21,2.21,0,1,1,.94,4.31L448.53,17l2.21,10.19a2.2,2.2,0,0,1-1.69,2.62A1.83,1.83,0,0,1,448.58,29.9Z"/><path class="cls-2" d="M326.36,317.33h-.06a2.21,2.21,0,0,1-2.15-2.26l.18-6.72-6.72-.18a2.21,2.21,0,0,1-2.15-2.27,2.18,2.18,0,0,1,2.27-2.15l8.92.24a2.2,2.2,0,0,1,2.15,2.26l-.23,8.93A2.22,2.22,0,0,1,326.36,317.33Z"/><path class="cls-2" d="M79.11,357.11a2.14,2.14,0,0,1-.74-.13A2.2,2.2,0,0,1,77,354.17l7.19-20.39A2.23,2.23,0,0,1,87,332.43l20.38,7.19a2.21,2.21,0,0,1-1.47,4.17l-18.3-6.45-6.45,18.3A2.21,2.21,0,0,1,79.11,357.11Z"/><path class="cls-2" d="M278.47,66a2.49,2.49,0,0,1-.46,0,2.21,2.21,0,0,1-1.7-2.62l6.09-28.89-28.89-6.09a2.21,2.21,0,0,1,.91-4.33l31.06,6.55a2.22,2.22,0,0,1,1.7,2.62l-6.55,31.06A2.21,2.21,0,0,1,278.47,66Z"/><path class="cls-2" d="M570.26,245.41a2.56,2.56,0,0,1-.39,0l-9.18-1.63a2.22,2.22,0,0,1-1.43-.91,2.25,2.25,0,0,1-.36-1.65l1.63-9.18a2.21,2.21,0,1,1,4.35.77l-1.24,7,7,1.24a2.21,2.21,0,0,1-.38,4.39Z"/><path class="cls-2" d="M246.29,268.36a2.17,2.17,0,0,1-1.19-.35l-4.65-3a2.21,2.21,0,0,1,2.39-3.72l2.79,1.79,1.78-2.79a2.21,2.21,0,0,1,3.72,2.39l-3,4.64A2.2,2.2,0,0,1,246.29,268.36Z"/><path class="cls-2" d="M552.07,145.45a2.22,2.22,0,0,1-1.7-3.62l4.55-5.5A2.22,2.22,0,0,1,558,136l5.5,4.55a2.21,2.21,0,0,1-2.82,3.41l-3.79-3.14-3.14,3.79A2.22,2.22,0,0,1,552.07,145.45Z"/><path class="cls-2" d="M150.7,420.07a2.21,2.21,0,0,1-1.43-3.9l3.22-2.73-2.72-3.22a2.21,2.21,0,1,1,3.37-2.85l4.15,4.91a2.2,2.2,0,0,1-.26,3.11l-4.9,4.15A2.24,2.24,0,0,1,150.7,420.07Z"/><path class="cls-2" d="M570.88,291.91h-.12a2.2,2.2,0,0,1-2.09-2.32l.18-3.41-3.42-.18a2.21,2.21,0,0,1,.23-4.42l5.63.3a2.2,2.2,0,0,1,2.08,2.32l-.29,5.62A2.21,2.21,0,0,1,570.88,291.91Z"/><path class="cls-2" d="M567.36,464.81a2.21,2.21,0,0,1-1.29-.42l-16.57-12a2.24,2.24,0,0,1-.88-1.44,2.17,2.17,0,0,1,.39-1.65l12-16.56a2.21,2.21,0,1,1,3.58,2.58l-10.67,14.78,14.78,10.67a2.21,2.21,0,0,1-1.3,4Z"/><path class="cls-2" d="M316.5,404.88a2.21,2.21,0,0,1-1.57-3.76l11.19-11.33a2.2,2.2,0,0,1,3.12,0L340.57,401a2.21,2.21,0,0,1-3.1,3.15l-9.76-9.64-9.63,9.76A2.23,2.23,0,0,1,316.5,404.88Z"/><path class="cls-2" d="M43.22,93.51a2.25,2.25,0,0,1-.84-.17,2.22,2.22,0,0,1-1.2-2.89l4.12-9.9-9.89-4.12a2.21,2.21,0,0,1,1.7-4.08l11.93,5a2.21,2.21,0,0,1,1.19,2.89l-5,11.94A2.21,2.21,0,0,1,43.22,93.51Z"/><path class="cls-2" d="M204.74,52.32a2.21,2.21,0,0,1-1.16-4.09l20.63-12.7-12.7-20.64a2.21,2.21,0,1,1,3.76-2.31l13.86,22.51a2.22,2.22,0,0,1-.72,3L205.89,52A2.21,2.21,0,0,1,204.74,52.32Z"/><path class="cls-2" d="M283.67,298.22a2.21,2.21,0,0,1-2-1.37l-3-7.15a2.21,2.21,0,0,1,1.19-2.89l7.16-3a2.21,2.21,0,1,1,1.69,4.08l-5.11,2.12,2.12,5.11a2.21,2.21,0,0,1-1.2,2.89A2.25,2.25,0,0,1,283.67,298.22Z"/><path class="cls-2" d="M497.14,19.72a2.22,2.22,0,0,1-1.71-.81l-5.29-6.5a2.21,2.21,0,0,1,3.43-2.79l3.89,4.78,4.79-3.89A2.21,2.21,0,0,1,505,13.94l-6.5,5.29A2.21,2.21,0,0,1,497.14,19.72Z"/><path class="cls-2" d="M536.75,574.69a2.21,2.21,0,0,1-.14-4.42l13.92-.9-.91-13.92a2.21,2.21,0,1,1,4.41-.29l1.05,16.12a2.17,2.17,0,0,1-.54,1.6,2.23,2.23,0,0,1-1.52.75l-16.12,1Z"/><path class="cls-2" d="M474,500a2.25,2.25,0,0,1-1.09-.29,2.22,2.22,0,0,1-.83-3l3.47-6.09-6.09-3.47a2.21,2.21,0,0,1,2.19-3.84l8,4.57a2.21,2.21,0,0,1,.83,3l-4.57,8A2.2,2.2,0,0,1,474,500Z"/><path class="cls-2" d="M504,73.32a2.2,2.2,0,0,1-1.59-.68l-22.2-23.08a2.21,2.21,0,0,1,3.19-3.06L504.1,68l21.48-20.66a2.21,2.21,0,0,1,3.07,3.19L505.57,72.7A2.22,2.22,0,0,1,504,73.32Z"/><path class="cls-2" d="M553.41,31.78a2.39,2.39,0,0,1-.53-.06l-16.26-4A2.21,2.21,0,0,1,535,25.06L539,8.8a2.21,2.21,0,1,1,4.29,1L539.82,24l14.11,3.47a2.21,2.21,0,0,1-.52,4.35Z"/><path class="cls-2" d="M553.61,103.52a2.21,2.21,0,0,1-2.14-1.67l-2.42-9.53a2.21,2.21,0,1,1,4.28-1.09l1.88,7.39,7.39-1.87a2.21,2.21,0,1,1,1.09,4.28l-9.54,2.42A2,2,0,0,1,553.61,103.52Z"/><path class="cls-2" d="M299.13,485.05a2.22,2.22,0,0,1-2.17-1.8l-5.35-27.9a2.2,2.2,0,0,1,.35-1.65,2.15,2.15,0,0,1,1.41-.93l27.9-5.35a2.21,2.21,0,0,1,.83,4.34l-25.73,4.93,4.93,25.73a2.21,2.21,0,0,1-1.75,2.59A3,3,0,0,1,299.13,485.05Z"/><path class="cls-2" d="M174,197.66a2.21,2.21,0,0,1-.65-4.32l5.21-1.6-1.6-5.21a2.21,2.21,0,0,1,4.22-1.3l2.25,7.32a2.18,2.18,0,0,1-.15,1.68,2.23,2.23,0,0,1-1.31,1.08l-7.32,2.25A2.05,2.05,0,0,1,174,197.66Z"/><path class="cls-2" d="M197.68,609.81h0l-17.53-.29a2.2,2.2,0,0,1-2.17-2.25l.29-17.54a2.22,2.22,0,0,1,2.21-2.17h0a2.21,2.21,0,0,1,2.17,2.25l-.26,15.33,15.33.25a2.21,2.21,0,0,1,0,4.42Z"/><path class="cls-2" d="M589.38,482.09a2.21,2.21,0,0,1-.66-4.32l15.18-4.72-4.72-15.17a2.21,2.21,0,1,1,4.22-1.31l5.37,17.28a2.2,2.2,0,0,1-1.45,2.76L590,482A2.16,2.16,0,0,1,589.38,482.09Z"/><path class="cls-2" d="M364.41,230.2a2,2,0,0,1-.35,0l-6.38-1a2.2,2.2,0,0,1-1.83-2.53l1-6.37a2.21,2.21,0,0,1,4.37.7l-.67,4.19,4.19.67a2.21,2.21,0,0,1-.35,4.39Z"/><path class="cls-2" d="M558.28,613.85a2.2,2.2,0,0,1-1.89-1.07l-3.45-5.67a2.21,2.21,0,1,1,3.77-2.3L559,608.6l3.79-2.3a2.21,2.21,0,1,1,2.3,3.77l-5.68,3.45A2.21,2.21,0,0,1,558.28,613.85Z"/><path class="cls-2" d="M207.9,239.12a2.2,2.2,0,0,1-2.14-1.66l-4.28-16.82a2.21,2.21,0,0,1,4.29-1.08l3.72,14.67,14.68-3.73a2.21,2.21,0,1,1,1.08,4.28l-16.81,4.27A2,2,0,0,1,207.9,239.12Z"/><path class="cls-2" d="M504.1,564.38a2.21,2.21,0,0,1-2.16-1.73l-1.4-6.36-6.36,1.4a2.21,2.21,0,1,1-.95-4.31l8.52-1.88a2.21,2.21,0,0,1,2.63,1.68l1.88,8.52a2.21,2.21,0,0,1-1.69,2.63A1.93,1.93,0,0,1,504.1,564.38Z"/><path class="cls-2" d="M254.37,317.67a2.7,2.7,0,0,1-.48-.05l-9-2a2.21,2.21,0,0,1-1.68-2.63l2-9a2.21,2.21,0,1,1,4.31.95L248,311.78l6.86,1.52a2.21,2.21,0,0,1-.48,4.37Z"/><path class="cls-2" d="M216.93,566.3a2.22,2.22,0,0,1-2.11-1.55l-5.6-17.91-17.9,5.6a2.21,2.21,0,1,1-1.32-4.22L210,542a2.21,2.21,0,0,1,2.77,1.45l6.26,20a2.22,2.22,0,0,1-1.45,2.77A2.16,2.16,0,0,1,216.93,566.3Z"/><path class="cls-2" d="M10,248.12a2.21,2.21,0,0,1-1-4.18l3.72-1.9-1.9-3.72a2.21,2.21,0,0,1,3.94-2l2.9,5.69a2.21,2.21,0,0,1-1,3L11,247.88A2.23,2.23,0,0,1,10,248.12Z"/><path class="cls-2" d="M297.05,365.45a2.2,2.2,0,0,1-1.86-1l-10.36-16.29a2.2,2.2,0,0,1,.68-3.05l16.29-10.36a2.21,2.21,0,1,1,2.37,3.72l-14.43,9.18,9.18,14.43a2.21,2.21,0,0,1-.68,3.05A2.24,2.24,0,0,1,297.05,365.45Z"/><path class="cls-2" d="M415.66,81.85a2.22,2.22,0,0,1-2.06-3l10.2-26.33-26.33-10.2a2.21,2.21,0,0,1,1.59-4.12l28.39,11a2.2,2.2,0,0,1,1.26,2.85l-11,28.39A2.2,2.2,0,0,1,415.66,81.85Z"/><path class="cls-2" d="M603.66,270a2.08,2.08,0,0,1-.6-.09,2.2,2.2,0,0,1-1.52-2.73l.92-3.26L599.2,263a2.21,2.21,0,0,1,1.2-4.25l5.4,1.53a2.22,2.22,0,0,1,1.52,2.73l-1.53,5.39A2.24,2.24,0,0,1,603.66,270Z"/><path class="cls-2" d="M172.52,527.36a2.26,2.26,0,0,1-1.06-.27l-11.77-6.47a2.21,2.21,0,0,1,2.13-3.87l9.83,5.4,5.41-9.83a2.21,2.21,0,0,1,3.87,2.13l-6.47,11.77A2.21,2.21,0,0,1,172.52,527.36Z"/><path class="cls-2" d="M5.56,335.36A2.21,2.21,0,0,1,4,331.56l2.8-2.7-2.69-2.79A2.21,2.21,0,1,1,7.32,323l4.22,4.39a2.21,2.21,0,0,1-.06,3.13l-4.39,4.22A2.2,2.2,0,0,1,5.56,335.36Z"/><path class="cls-2" d="M486.56,305.56a2.22,2.22,0,0,1-1.37-.48L472,294.57a2.21,2.21,0,1,1,2.75-3.46l11.48,9.13,9.13-11.48a2.21,2.21,0,0,1,3.46,2.75l-10.51,13.21a2.15,2.15,0,0,1-1.48.82Z"/><path class="cls-2" d="M162.71,318a2.24,2.24,0,0,1-1.21-.36l-17.62-11.47a2.21,2.21,0,0,1-.65-3l11.47-17.63a2.21,2.21,0,1,1,3.7,2.41l-10.26,15.77,15.77,10.27a2.21,2.21,0,0,1-1.2,4.06Z"/><path class="cls-2" d="M39.88,158.56a2.14,2.14,0,0,1-.82-.16l-20.43-8.14a2.21,2.21,0,0,1-1.23-2.87L25.54,127a2.21,2.21,0,0,1,4.11,1.64L22.32,147l18.37,7.32a2.21,2.21,0,0,1-.81,4.27Z"/><path class="cls-2" d="M182.82,23.72a2.14,2.14,0,0,1-1-.23,2.21,2.21,0,0,1-1-3l2.56-5.18-5.18-2.57a2.21,2.21,0,1,1,2-4l7.16,3.55a2.19,2.19,0,0,1,1,3l-3.54,7.16A2.21,2.21,0,0,1,182.82,23.72Z"/><path class="cls-2" d="M124.36,610.56a2.21,2.21,0,0,1-2.06-3l3.65-9.32-9.33-3.65a2.21,2.21,0,1,1,1.61-4.11l11.38,4.45a2.21,2.21,0,0,1,1.26,2.86l-4.45,11.38A2.22,2.22,0,0,1,124.36,610.56Z"/><path class="cls-2" d="M597.57,610.9a2.21,2.21,0,0,1-1.79-3.5l2.58-3.59-3.59-2.59a2.21,2.21,0,0,1,2.58-3.58l5.38,3.87a2.21,2.21,0,0,1,.51,3.08L599.36,610A2.2,2.2,0,0,1,597.57,610.9Z"/><path class="cls-2" d="M606.88,432.33a2.22,2.22,0,0,1-1.71-.81L591.51,414.9a2.22,2.22,0,0,1,.31-3.11l16.62-13.65a2.21,2.21,0,1,1,2.8,3.41L596.33,413.8l12.25,14.92a2.21,2.21,0,0,1-.3,3.11A2.24,2.24,0,0,1,606.88,432.33Z"/><path class="cls-2" d="M155.33,477.65a2.19,2.19,0,0,1-2-1.33l-4.26-9.83a2.2,2.2,0,0,1,1.15-2.9l9.83-4.26a2.21,2.21,0,0,1,1.75,4.05l-7.8,3.38,3.38,7.81a2.21,2.21,0,0,1-1.15,2.9A2.27,2.27,0,0,1,155.33,477.65Z"/><path class="cls-2" d="M493.5,421a2.21,2.21,0,0,1-1.76-3.54l3.51-4.65a2.2,2.2,0,0,1,3.09-.43l4.65,3.51a2.21,2.21,0,0,1-2.66,3.52l-2.89-2.17-2.17,2.88A2.21,2.21,0,0,1,493.5,421Z"/><path class="cls-2" d="M26.29,360.78a2.19,2.19,0,0,1-1.34-.45,2.21,2.21,0,0,1-.41-3.1l4.35-5.69a2.23,2.23,0,0,1,3.1-.41l5.69,4.35A2.21,2.21,0,1,1,35,359l-3.93-3-3,3.94A2.22,2.22,0,0,1,26.29,360.78Z"/><path class="cls-2" d="M602.1,122.18a2.23,2.23,0,0,1-1.7-.79l-4.4-5.27a2.2,2.2,0,0,1,.27-3.11l5.26-4.41a2.21,2.21,0,1,1,2.84,3.39l-3.57,3,3,3.57a2.21,2.21,0,0,1-1.69,3.63Z"/><path class="cls-2" d="M100.79,28.4a2.1,2.1,0,0,1-.74-.13,2.21,2.21,0,0,1-1.34-2.82l2.37-6.65-6.65-2.37a2.21,2.21,0,1,1,1.48-4.16l8.73,3.11a2.24,2.24,0,0,1,1.26,1.14A2.18,2.18,0,0,1,106,18.2l-3.11,8.73A2.2,2.2,0,0,1,100.79,28.4Z"/><path class="cls-2" d="M109,146.63a2.06,2.06,0,0,1-.35,0l-24.15-3.82a2.21,2.21,0,0,1,.69-4.36l22,3.47,3.47-22a2.21,2.21,0,0,1,4.37.69l-3.82,24.15a2.2,2.2,0,0,1-2.18,1.86Z"/><path class="cls-2" d="M600.15,226.48a2.22,2.22,0,0,1-1-.27L585.8,219a2.21,2.21,0,0,1,2.11-3.88l11.36,6.17,6.17-11.35a2.21,2.21,0,1,1,3.89,2.11l-7.24,13.3A2.22,2.22,0,0,1,600.15,226.48Z"/><path class="cls-2" d="M400.15,266.34H400a2.21,2.21,0,0,1-2-2.38L399,251a2.21,2.21,0,0,1,2.37-2l12.94,1a2.21,2.21,0,0,1-.35,4.41l-10.73-.85-.85,10.73A2.2,2.2,0,0,1,400.15,266.34Z"/><path class="cls-2" d="M334.49,522.85h-.13l-12.93-.75a2.21,2.21,0,1,1,.26-4.41l10.72.62.62-10.72a2.21,2.21,0,1,1,4.41.26l-.75,12.92A2.2,2.2,0,0,1,334.49,522.85Z"/><path class="cls-2" d="M34.15,302.7a2.19,2.19,0,0,1-.83-.16,2.22,2.22,0,0,1-1.2-1.19L21.77,276.88a2.21,2.21,0,0,1,4.07-1.72l9.49,22.43,22.43-9.48a2.21,2.21,0,0,1,1.72,4.07L35,302.52A2.14,2.14,0,0,1,34.15,302.7Z"/><path class="cls-2" d="M352.32,287.14a2.21,2.21,0,0,1-1.06-4.15l13-7.08-7.08-13a2.21,2.21,0,1,1,3.88-2.11l8.14,15a2.2,2.2,0,0,1-.89,3l-14.95,8.14A2.14,2.14,0,0,1,352.32,287.14Z"/><path class="cls-2" d="M213.77,440.09a2.18,2.18,0,0,1-.5,0l-19.46-4.57a2.17,2.17,0,0,1-1.37-1,2.23,2.23,0,0,1-.28-1.67l4.57-19.45a2.21,2.21,0,1,1,4.3,1L197,431.67l17.31,4.06a2.21,2.21,0,0,1-.51,4.36Z"/><path class="cls-2" d="M585.21,21.08a2.2,2.2,0,0,1-2.08-1.46L577.12,3a2.21,2.21,0,1,1,4.16-1.5L586.53,16l14.59-5.25a2.21,2.21,0,1,1,1.5,4.15L586,21A2.24,2.24,0,0,1,585.21,21.08Z"/><path class="cls-2" d="M328,132.59a2.2,2.2,0,0,1-2.16-1.74l-6.09-28.35a2.2,2.2,0,0,1,1.69-2.62l28.35-6.09a2.21,2.21,0,0,1,.93,4.32l-26.19,5.63,5.63,26.18a2.2,2.2,0,0,1-1.69,2.62A1.93,1.93,0,0,1,328,132.59Z"/><path class="cls-2" d="M166.9,382a2.2,2.2,0,0,1-1.86-1l-11.38-17.65a2.16,2.16,0,0,1-.3-1.66,2.21,2.21,0,0,1,1-1.39L172,348.94a2.21,2.21,0,1,1,2.4,3.71l-15.8,10.19,10.18,15.79A2.22,2.22,0,0,1,166.9,382Z"/><path class="cls-2" d="M15.73,607.44a2.22,2.22,0,0,1-1.6-3.74l14.23-14.9a2.2,2.2,0,0,1,3.12-.08L46.39,603a2.21,2.21,0,0,1-3,3.2L30,593.44l-12.7,13.31A2.21,2.21,0,0,1,15.73,607.44Z"/><path class="cls-2" d="M404.23,368.76a2.21,2.21,0,0,1-2.21-2.15l-.21-7.09a2.23,2.23,0,0,1,2.15-2.28l7.1-.2a2.18,2.18,0,0,1,2.27,2.14,2.23,2.23,0,0,1-2.15,2.28l-4.89.14.15,4.89a2.22,2.22,0,0,1-2.15,2.27Z"/><path class="cls-2" d="M479.65,395.28a2.5,2.5,0,0,1-.65-.1,2.22,2.22,0,0,1-1.46-2.77l6-19.19a2.18,2.18,0,0,1,1.08-1.3,2.26,2.26,0,0,1,1.69-.16l19.19,6a2.21,2.21,0,0,1-1.31,4.22l-17.09-5.32-5.32,17.08A2.2,2.2,0,0,1,479.65,395.28Z"/><path class="cls-2" d="M537.51,270.32a2.07,2.07,0,0,1-.69-.11l-25.45-8.31a2.21,2.21,0,0,1-1.41-2.79l8.31-25.45a2.21,2.21,0,0,1,4.2,1.37l-7.63,23.36L538.2,266a2.21,2.21,0,0,1-.69,4.31Z"/><path class="cls-2" d="M390,321.56a2.27,2.27,0,0,1-1.37-.47,2.22,2.22,0,0,1-.36-3.11L397,306.84a2.21,2.21,0,0,1,3.1-.37l11.15,8.79a2.21,2.21,0,0,1-2.74,3.47l-9.41-7.42-7.41,9.41A2.23,2.23,0,0,1,390,321.56Z"/><path class="cls-2" d="M85.83,215.18a1.88,1.88,0,0,1-.47-.05,2.2,2.2,0,0,1-1.69-2.62l4.51-21-21-4.51a2.21,2.21,0,1,1,.92-4.32l23.16,5a2.21,2.21,0,0,1,1.7,2.63l-5,23.16A2.2,2.2,0,0,1,85.83,215.18Z"/><path class="cls-2" d="M266.47,425.4a2.37,2.37,0,0,1-.52-.06l-25-6a2.21,2.21,0,0,1,1-4.3l22.85,5.45,5.45-22.85a2.21,2.21,0,0,1,4.29,1l-5.95,25A2.22,2.22,0,0,1,266.47,425.4Z"/><path class="cls-2" d="M252.73,84.5a2.19,2.19,0,0,1-2.07-1.45L248,75.69l-7.36,2.7a2.21,2.21,0,1,1-1.53-4.15l9.44-3.46a2.22,2.22,0,0,1,2.84,1.31l3.46,9.44a2.2,2.2,0,0,1-1.31,2.83A2,2,0,0,1,252.73,84.5Z"/><path class="cls-2" d="M285,235.41a2.3,2.3,0,0,1-.45,0l-23-4.69a2.21,2.21,0,0,1-1.72-2.61l4.69-23a2.21,2.21,0,0,1,4.33.88l-4.25,20.85L285.42,231a2.22,2.22,0,0,1,1.72,2.61A2.2,2.2,0,0,1,285,235.41Z"/><path class="cls-2" d="M540.83,414.82l-.32,0a2.22,2.22,0,0,1-1.87-2.5l4.19-29.15a2.21,2.21,0,0,1,2.5-1.88l29.15,4.19a2.21,2.21,0,0,1-.63,4.37l-27-3.87-3.88,27A2.2,2.2,0,0,1,540.83,414.82Z"/><path class="cls-2" d="M28.18,212.79a2.21,2.21,0,0,1-2.11-1.55l-3.78-12-12,3.78A2.21,2.21,0,0,1,9,198.79l14.12-4.44a2.22,2.22,0,0,1,2.78,1.45l4.44,14.12a2.22,2.22,0,0,1-1.45,2.77A2.16,2.16,0,0,1,28.18,212.79Z"/><path class="cls-2" d="M378.35,147.11a2.21,2.21,0,0,1-1.31-4l4.17-3-3-4.17a2.21,2.21,0,0,1,3.57-2.61l4.35,6a2.23,2.23,0,0,1,.39,1.64,2.2,2.2,0,0,1-.88,1.45l-6,4.34A2.19,2.19,0,0,1,378.35,147.11Z"/><path class="cls-2" d="M237.3,192.67a2.2,2.2,0,0,1-1.88-1.06L222.8,170.94a2.18,2.18,0,0,1-.26-1.67,2.15,2.15,0,0,1,1-1.36l20.67-12.62a2.21,2.21,0,1,1,2.3,3.77l-18.78,11.47,11.47,18.78a2.22,2.22,0,0,1-1.89,3.36Z"/><path class="cls-2" d="M359.87,364.93a2.19,2.19,0,0,1-1.54-.63L345,351.37a2.2,2.2,0,0,1,0-3.12l12.93-13.38A2.21,2.21,0,1,1,361,338l-11.4,11.78,11.78,11.4a2.21,2.21,0,0,1-1.53,3.8Z"/><path class="cls-2" d="M512.77,136.16a2.23,2.23,0,0,1-1-.26L490,124.28a2.21,2.21,0,0,1,2.09-3.9L511.86,131l10.58-19.8a2.21,2.21,0,0,1,3.89,2.08L514.72,135a2.21,2.21,0,0,1-1.31,1.07A2,2,0,0,1,512.77,136.16Z"/><path class="cls-2" d="M110.78,507.16a1.9,1.9,0,0,1-.41,0,2.21,2.21,0,0,1-1.77-2.58l1.7-9.08a2.22,2.22,0,0,1,2.58-1.77l9.09,1.7a2.21,2.21,0,0,1-.82,4.35l-6.91-1.3L113,505.36A2.21,2.21,0,0,1,110.78,507.16Z"/><path class="cls-2" d="M538.84,526.44a2.17,2.17,0,0,1-1.19-.35l-24.88-15.83a2.22,2.22,0,0,1-.68-3.06l15.84-24.88a2.21,2.21,0,0,1,3.73,2.37l-14.65,23,23,14.66a2.21,2.21,0,0,1-1.19,4.07Z"/><path class="cls-2" d="M385,203.8a2.2,2.2,0,0,1-1.41-.51l-12.69-10.56a2.21,2.21,0,0,1-.28-3.11l10.56-12.69a2.21,2.21,0,0,1,3.4,2.83l-9.15,11,11,9.15A2.21,2.21,0,0,1,385,203.8Z"/><path class="cls-2" d="M602.16,315.05a2.21,2.21,0,0,1-2.08-1.47l-2-5.68a2.22,2.22,0,0,1,1.34-2.83l5.69-2a2.21,2.21,0,1,1,1.48,4.16L603,308.5l1.28,3.6a2.21,2.21,0,0,1-1.34,2.82A2.1,2.1,0,0,1,602.16,315.05Z"/><path class="cls-2" d="M86.19,100.65a2.2,2.2,0,0,1-2.19-2L81.07,66.91a2.2,2.2,0,0,1,2-2.4l31.74-2.93a2.21,2.21,0,1,1,.4,4.4L85.67,68.71l2.72,29.53a2.2,2.2,0,0,1-2,2.4Z"/><path class="cls-2" d="M285,563.33a2.21,2.21,0,0,1-1.05-4.15l2.76-1.49-1.49-2.76a2.21,2.21,0,0,1,3.89-2.09l2.54,4.7a2.22,2.22,0,0,1-.9,3l-4.7,2.54A2.18,2.18,0,0,1,285,563.33Z"/><path class="cls-2" d="M279,180.42a2.23,2.23,0,0,1-1.42-.51l-4.48-3.75a2.21,2.21,0,0,1,2.83-3.39l2.79,2.33,2.33-2.78a2.21,2.21,0,1,1,3.39,2.83l-3.75,4.48A2.21,2.21,0,0,1,279,180.42Z"/><path class="cls-2" d="M10.56,487.34a2.21,2.21,0,0,1-1.78-3.51l6.81-9.38-9.38-6.81a2.21,2.21,0,1,1,2.6-3.58L20,472.18a2.22,2.22,0,0,1,.49,3.08l-8.12,11.17A2.21,2.21,0,0,1,10.56,487.34Z"/><path class="cls-2" d="M593.86,71.63a2.2,2.2,0,0,1-.44,0l-28.21-5.66a2.21,2.21,0,0,1,.87-4.34l26,5.24,5.24-26a2.21,2.21,0,0,1,4.33.87L596,69.85A2.21,2.21,0,0,1,593.86,71.63Z"/><path class="cls-2" d="M362.58,50.68h-.18a2.21,2.21,0,0,1-2-2.39l1.33-16.06-16.06-1.33a2.21,2.21,0,1,1,.36-4.4L364.28,28a2.22,2.22,0,0,1,2,2.39l-1.52,18.26A2.21,2.21,0,0,1,362.58,50.68Z"/><path class="cls-2" d="M380.94,523.35a2.2,2.2,0,0,1-2-3.11l8.56-19.12-19.12-8.56a2.21,2.21,0,1,1,1.8-4L391.31,498a2.21,2.21,0,0,1,1.11,2.92L383,522A2.21,2.21,0,0,1,380.94,523.35Z"/><path class="cls-2" d="M324.07,267.67a2.18,2.18,0,0,1-1.76-.88l-10.56-14a2.22,2.22,0,0,1,.44-3.1l14-10.55a2.21,2.21,0,0,1,2.66,3.52l-12.24,9.23,9.23,12.23a2.22,2.22,0,0,1-.44,3.1A2.19,2.19,0,0,1,324.07,267.67Z"/><path class="cls-2" d="M438.88,395.91a2.21,2.21,0,0,1-1.1-4.12l4.05-2.31-2.31-4.05a2.21,2.21,0,0,1,3.84-2.19l3.4,6a2.2,2.2,0,0,1-.82,3l-6,3.4A2.15,2.15,0,0,1,438.88,395.91Z"/><path class="cls-2" d="M88.71,452.56a2.2,2.2,0,0,1-.55-4.34l26.64-6.86-6.86-26.64a2.21,2.21,0,1,1,4.28-1.1l7.41,28.78a2.22,2.22,0,0,1-1.59,2.69l-28.78,7.4A2.08,2.08,0,0,1,88.71,452.56Z"/><path class="cls-2" d="M242.59,613.85a2.19,2.19,0,0,1-2-1.26l-7.28-15.33a2.21,2.21,0,0,1,1.05-2.94l15.33-7.27a2.21,2.21,0,1,1,1.89,4l-13.33,6.33,6.33,13.33a2.21,2.21,0,0,1-1.05,2.94A2.3,2.3,0,0,1,242.59,613.85Z"/><path class="cls-2" d="M108.88,293.87a2.2,2.2,0,0,1-2.06-1.42l-8.51-22a2.21,2.21,0,0,1,1.27-2.86l22-8.5a2.21,2.21,0,1,1,1.59,4.12l-19.92,7.7,7.71,19.93a2.22,2.22,0,0,1-2.06,3Z"/><path class="cls-2" d="M337.85,66.26h-.11l-15.65-.76a2.22,2.22,0,0,1-2.1-2.32l.77-15.65a2.21,2.21,0,1,1,4.41.22l-.65,13.44,13.44.66a2.21,2.21,0,0,1-.11,4.41Z"/><path class="cls-2" d="M541.35,321.82a2.22,2.22,0,0,1-2.18-1.86L537,306.47l-13.5,2.2a2.21,2.21,0,0,1-.71-4.36l15.68-2.55a2.19,2.19,0,0,1,2.53,1.82l2.55,15.67a2.21,2.21,0,0,1-1.82,2.54Z"/><path class="cls-2" d="M506.49,612.56a2.21,2.21,0,0,1-1.78-3.51l4.91-6.77a2.21,2.21,0,0,1,3.09-.49l6.77,4.92a2.21,2.21,0,1,1-2.59,3.57l-5-3.62-3.62,5A2.22,2.22,0,0,1,506.49,612.56Z"/><path class="cls-2" d="M522.91,217.6a2.18,2.18,0,0,1-1.22-.37,2.21,2.21,0,0,1-.63-3.06L538,188.57l-25.59-16.91a2.21,2.21,0,1,1,2.43-3.69l27.44,18.14a2.21,2.21,0,0,1,.63,3.06L524.75,216.6A2.19,2.19,0,0,1,522.91,217.6Z"/><path class="cls-2" d="M501.44,458.38a2.2,2.2,0,0,1-1.62-.71l-8.74-9.47a2.21,2.21,0,1,1,3.25-3l7.24,7.85,7.85-7.24a2.21,2.21,0,0,1,3,3.25l-9.48,8.74A2.21,2.21,0,0,1,501.44,458.38Z"/><path class="cls-2" d="M14.89,41.24a2.23,2.23,0,0,1-1.78-.89L4.54,28.87A2.22,2.22,0,0,1,5,25.77L16.47,17.2a2.21,2.21,0,0,1,2.64,3.54L9.4,28l7.26,9.72a2.22,2.22,0,0,1-.45,3.09A2.25,2.25,0,0,1,14.89,41.24Z"/><path class="cls-2" d="M434.87,156a2.17,2.17,0,0,1-1.53-.62,2.21,2.21,0,0,1-.06-3.12l16.55-17.16-17.15-16.55a2.21,2.21,0,0,1,3.06-3.18l18.75,18.09a2.21,2.21,0,0,1,.06,3.12l-18.09,18.75A2.19,2.19,0,0,1,434.87,156Z"/><path class="cls-2" d="M384.94,411.73a2.21,2.21,0,0,1-2-1.21l-9-17.62a2.2,2.2,0,1,1,3.93-2l8,15.65,15.65-8a2.21,2.21,0,0,1,2,3.93l-17.62,9A2.23,2.23,0,0,1,384.94,411.73Z"/><path class="cls-2" d="M154,574.86a2.21,2.21,0,0,1-1.09-4.13l8.13-4.58L156.44,558a2.21,2.21,0,0,1,3.85-2.17l5.66,10a2.19,2.19,0,0,1,.21,1.68,2.23,2.23,0,0,1-1,1.33l-10.06,5.67A2.2,2.2,0,0,1,154,574.86Z"/><path class="cls-2" d="M97.83,391.43l-.32,0a2.2,2.2,0,0,1-1.86-2.51L97.4,377a2.21,2.21,0,0,1,2.5-1.86l11.86,1.75a2.21,2.21,0,1,1-.64,4.37l-9.68-1.43L100,389.55A2.21,2.21,0,0,1,97.83,391.43Z"/><path class="cls-2" d="M603.44,570.76a2.2,2.2,0,0,1-2-1.21l-4.35-8.63a2.2,2.2,0,0,1-.12-1.69,2.24,2.24,0,0,1,1.1-1.28l8.63-4.34a2.21,2.21,0,1,1,2,3.95l-6.66,3.34,3.35,6.66a2.21,2.21,0,0,1-1,3A2.15,2.15,0,0,1,603.44,570.76Z"/><path class="cls-2" d="M291.29,147.07a2.21,2.21,0,0,1-2.11-1.54l-8.5-26.63L254,127.4a2.21,2.21,0,0,1-1.34-4.21L281.44,114a2.22,2.22,0,0,1,2.78,1.44l9.17,28.74A2.2,2.2,0,0,1,292,147,2,2,0,0,1,291.29,147.07Z"/><path class="cls-2" d="M344.42,563.18a2.15,2.15,0,0,1-.61-.09,2.2,2.2,0,0,1-1.52-2.72l3.91-13.81-13.8-3.91a2.21,2.21,0,1,1,1.2-4.25l15.93,4.51a2.2,2.2,0,0,1,1.52,2.73l-4.51,15.93A2.22,2.22,0,0,1,344.42,563.18Z"/><path class="cls-2" d="M570.92,194.8a2.35,2.35,0,0,1-.86-.17,2.22,2.22,0,0,1-1.18-2.9L581.2,162.6a2.21,2.21,0,0,1,2.9-1.18l29.13,12.32a2.21,2.21,0,0,1-1.72,4.07l-27.1-11.46L573,193.45A2.21,2.21,0,0,1,570.92,194.8Z"/><path class="cls-2" d="M582.38,539.71a2.11,2.11,0,0,1-1-.27,2.2,2.2,0,0,1-.88-3l11.11-20.39-20.39-11.12a2.21,2.21,0,0,1,2.12-3.88l22.32,12.17a2.21,2.21,0,0,1,.89,3l-12.17,22.33A2.2,2.2,0,0,1,582.38,539.71Z"/><path class="cls-2" d="M146.82,113.5a2.2,2.2,0,0,1-2.06-1.42l-8.95-23.5A2.21,2.21,0,1,1,139.94,87l8.16,21.43,21.44-8.16a2.21,2.21,0,0,1,1.57,4.13l-23.5,9A2.44,2.44,0,0,1,146.82,113.5Z"/><path class="cls-2" d="M430.65,481.47a2.21,2.21,0,0,1-2.16-1.74l-6.85-32.05a2.21,2.21,0,0,1,1.7-2.62l32.05-6.85a2.21,2.21,0,1,1,.92,4.32l-29.89,6.39,6.39,29.88a2.21,2.21,0,0,1-1.7,2.63A2.38,2.38,0,0,1,430.65,481.47Z"/><path class="cls-2" d="M222.24,390.6a2.21,2.21,0,0,1-2.21-2.09l-1.57-29a2.21,2.21,0,0,1,2.08-2.32l29-1.58a2.24,2.24,0,0,1,2.33,2.09,2.21,2.21,0,0,1-2.09,2.32L223,361.44l1.45,26.83a2.21,2.21,0,0,1-2.08,2.33Z"/><path class="cls-2" d="M436,298.33a2.15,2.15,0,0,1-.61-.09l-8.07-2.33a2.2,2.2,0,0,1-1.51-2.74l2.33-8.06a2.21,2.21,0,1,1,4.24,1.22l-1.71,5.95,5.94,1.72a2.21,2.21,0,0,1-.61,4.33Z"/><path class="cls-2" d="M189.22,150.51a2,2,0,0,1-.68-.12l-10.21-3.34a2.21,2.21,0,0,1,1.38-4.2l8.1,2.66,2.66-8.1a2.21,2.21,0,1,1,4.2,1.37L191.32,149A2.21,2.21,0,0,1,189.22,150.51Z"/><path class="cls-2" d="M307.32,607h-.22l-30.87-3a2.21,2.21,0,1,1,.42-4.39l28.67,2.73,2.74-28.67a2.21,2.21,0,0,1,4.4.42L309.51,605A2.2,2.2,0,0,1,307.32,607Z"/><path class="cls-2" d="M181,75.74a2.17,2.17,0,0,1-1.34-.45L175.21,72a2.22,2.22,0,0,1-.41-3.1l3.34-4.4a2.21,2.21,0,1,1,3.52,2.68l-2,2.64,2.64,2a2.21,2.21,0,0,1-1.34,4Z"/><path class="cls-2" d="M84.92,608.51h0l-7.66-.12a2.2,2.2,0,0,1-2.17-2.25l.12-7.65a2.17,2.17,0,0,1,2.24-2.17,2.21,2.21,0,0,1,2.18,2.24L79.51,604l5.44.08a2.21,2.21,0,0,1,0,4.42Z"/><path class="cls-2" d="M202.84,494.57a2.13,2.13,0,0,1-.55-.07,2.21,2.21,0,0,1-1.59-2.69l2.21-8.58L194.33,481a2.19,2.19,0,0,1-1.59-2.69,2.22,2.22,0,0,1,2.69-1.59l10.72,2.76a2.21,2.21,0,0,1,1.59,2.69L205,492.91A2.2,2.2,0,0,1,202.84,494.57Z"/><path class="cls-2" d="M476.31,613.61l-.26,0-20-2.31a2.21,2.21,0,0,1,.5-4.39L474.36,609l2.06-17.81a2.21,2.21,0,1,1,4.39.51l-2.31,20A2.21,2.21,0,0,1,476.31,613.61Z"/><path class="cls-2" d="M19.09,564.92a2.21,2.21,0,0,1-2.15-1.73l-6-26.93a2.21,2.21,0,0,1,1.68-2.63l26.92-6a2.21,2.21,0,1,1,1,4.31l-24.77,5.5,5.5,24.77a2.19,2.19,0,0,1-1.68,2.63A2,2,0,0,1,19.09,564.92Z"/><path class="cls-2" d="M39,442.72a2.2,2.2,0,0,1-1.37-3.93L61.17,420,42.43,396.47a2.21,2.21,0,1,1,3.46-2.75L66,419a2.2,2.2,0,0,1-.36,3.1l-25.3,20.11A2.17,2.17,0,0,1,39,442.72Z"/><path class="cls-2" d="M310.12,15.52a2.16,2.16,0,0,1-1-.25,2.2,2.2,0,0,1-.95-3l4-7.69a2.22,2.22,0,0,1,3-1l7.68,4a2.2,2.2,0,1,1-2,3.92L315,8.6l-2.95,5.72A2.2,2.2,0,0,1,310.12,15.52Z"/><path class="cls-2" d="M456.84,346.48a2.21,2.21,0,0,1-1.87-1l-8.9-14.17a2.21,2.21,0,1,1,3.75-2.35l7.71,12.3,12.3-7.72a2.21,2.21,0,1,1,2.35,3.74L458,346.14A2.18,2.18,0,0,1,456.84,346.48Z"/><path class="cls-2" d="M350.93,609a2.2,2.2,0,0,1-1.74-3.57l16.75-21.23a2.2,2.2,0,0,1,3.1-.37l21.23,16.74a2.21,2.21,0,1,1-2.74,3.47L368,588.71,352.66,608.2A2.17,2.17,0,0,1,350.93,609Z"/><path class="cls-2" d="M53.35,31.38a2.21,2.21,0,0,1-1.6-3.73l5.07-5.33-5.33-5.08a2.21,2.21,0,1,1,3-3.2l6.93,6.6a2.21,2.21,0,0,1,.08,3.12L55,30.69A2.19,2.19,0,0,1,53.35,31.38Z"/><path class="cls-2" d="M341,190.61a2.22,2.22,0,0,1-2-1.34l-10-23a2.22,2.22,0,0,1,1.14-2.91l23-10a2.21,2.21,0,1,1,1.76,4.06l-21,9.09,9.09,21a2.21,2.21,0,0,1-1.15,2.9A2.12,2.12,0,0,1,341,190.61Z"/><path class="cls-2" d="M250.67,483.59l-.25,0-10.2-1.16a2.21,2.21,0,0,1,.5-4.39l8,.91.92-8a2.21,2.21,0,0,1,4.39.5l-1.17,10.2A2.21,2.21,0,0,1,250.67,483.59Z"/><path class="cls-2" d="M317.9,211.93a2.34,2.34,0,0,1-.85-.17l-12.18-5.09a2.21,2.21,0,0,1-1.19-2.89l5.08-12.19a2.21,2.21,0,0,1,4.08,1.71l-4.23,10.14,10.14,4.24a2.21,2.21,0,0,1-.85,4.25Z"/><path class="cls-2" d="M395,13.35a2.17,2.17,0,0,1-1.43-.53l-5.29-4.53a2.21,2.21,0,0,1,2.87-3.35L394.71,8l3.09-3.61a2.21,2.21,0,1,1,3.36,2.87l-4.53,5.29A2.18,2.18,0,0,1,395,13.35Z"/><path class="cls-2" d="M460.92,108.31a2.21,2.21,0,0,1-1.82-1l-9.93-14.47a2.22,2.22,0,0,1,.57-3.08l14.47-9.92a2.21,2.21,0,1,1,2.5,3.64L454.06,92.2l8.68,12.65a2.21,2.21,0,0,1-1.82,3.46Z"/><path class="cls-2" d="M128.74,51.42a2.21,2.21,0,0,1-1-4.16l26.29-14L140,7a2.21,2.21,0,1,1,3.9-2.07l15,28.25a2.18,2.18,0,0,1,.17,1.68,2.21,2.21,0,0,1-1.08,1.3l-28.25,15A2.29,2.29,0,0,1,128.74,51.42Z"/><path class="cls-2" d="M4.44,422.59a2.17,2.17,0,0,1-1.4-.5A2.21,2.21,0,0,1,2.73,419l8.85-10.77L.81,399.37A2.21,2.21,0,0,1,3.61,396L16.09,406.2a2.21,2.21,0,0,1,.3,3.11L6.15,421.78A2.19,2.19,0,0,1,4.44,422.59Z"/><path class="cls-2" d="M54.43,503.65a2.19,2.19,0,0,1-2-1.25,2.21,2.21,0,0,1,1-2.95l15-7.18-7.19-15a2.21,2.21,0,1,1,4-1.91l8.14,17a2.25,2.25,0,0,1,.09,1.69,2.19,2.19,0,0,1-1.13,1.26l-17,8.14A2.19,2.19,0,0,1,54.43,503.65Z"/><path class="cls-2" d="M406.6,119.52a2,2,0,0,1-.34,0l-27.37-4.32a2.21,2.21,0,0,1-1.84-2.53l4.33-27.36a2.21,2.21,0,1,1,4.36.69l-4,25.18,25.19,4a2.21,2.21,0,0,1-.35,4.39Z"/><path class="cls-2" d="M418.55,215.08a2.43,2.43,0,0,1-.65-.09,2.23,2.23,0,0,1-1.47-2.76l6.88-22.53-22.52-6.87a2.21,2.21,0,1,1,1.29-4.23l24.64,7.52a2.21,2.21,0,0,1,1.3,1.08,2.19,2.19,0,0,1,.17,1.68l-7.53,24.64A2.21,2.21,0,0,1,418.55,215.08Z"/><path class="cls-2" d="M448.49,263.89A2.22,2.22,0,0,1,446.4,261l8-23.23a2.2,2.2,0,0,1,2.8-1.37l23.23,8A2.21,2.21,0,1,1,479,248.5l-21.14-7.25-7.25,21.14A2.21,2.21,0,0,1,448.49,263.89Z"/><path class="cls-2" d="M205.17,323.77a2.18,2.18,0,0,1-1-.26l-5.39-2.92a2.21,2.21,0,1,1,2.11-3.89l3.44,1.87,1.87-3.45a2.21,2.21,0,1,1,3.88,2.11l-2.92,5.39A2.2,2.2,0,0,1,205.17,323.77Z"/><path class="cls-2" d="M127.53,218.45a2.22,2.22,0,0,1-1.94-1.14L123,212.5a2.21,2.21,0,1,1,3.87-2.13l1.58,2.87,2.88-1.58a2.21,2.21,0,1,1,2.12,3.87l-4.81,2.65A2.23,2.23,0,0,1,127.53,218.45Z"/><path class="cls-2" d="M217.69,119.34a2.2,2.2,0,0,1-2.21-2.2l0-13.69-13.69,0h0a2.21,2.21,0,0,1,0-4.42l15.9,0h0a2.22,2.22,0,0,1,2.21,2.21l0,15.9a2.21,2.21,0,0,1-2.21,2.21Z"/><path class="cls-2" d="M70.25,559.8a2.21,2.21,0,0,1-.69-4.31l9.6-3.17L76,542.72a2.21,2.21,0,1,1,4.2-1.38L84.05,553a2.21,2.21,0,0,1-1.41,2.79l-11.7,3.85A2.09,2.09,0,0,1,70.25,559.8Z"/><path class="cls-2" d="M450.4,561.23l-.27,0a2.21,2.21,0,0,1-1.92-2.46l3.05-25.08-25.08-3a2.21,2.21,0,0,1,.53-4.39L454,529.55a2.21,2.21,0,0,1,1.92,2.46l-3.32,27.27A2.2,2.2,0,0,1,450.4,561.23Z"/><path class="cls-2" d="M158.51,249.87a2.22,2.22,0,0,1-2.16-2.72L158,240a2.21,2.21,0,0,1,2.66-1.65l7.12,1.67a2.21,2.21,0,0,1-1,4.3l-5-1.16-1.17,5A2.21,2.21,0,0,1,158.51,249.87Z"/><path class="cls-2" d="M141,177.32a2.21,2.21,0,0,1-2-1.35l-6-14.14a2.21,2.21,0,0,1,1.17-2.9l14.14-6a2.21,2.21,0,1,1,1.72,4.07L138,162.14l5.11,12.11a2.2,2.2,0,0,1-1.18,2.89A2.16,2.16,0,0,1,141,177.32Z"/><path class="cls-2" d="M6.38,102.88a2.17,2.17,0,0,1-1.54-.64,2.2,2.2,0,0,1,0-3.12l4.87-5L4.73,89.3a2.21,2.21,0,1,1,3.09-3.15l6.53,6.42a2.21,2.21,0,0,1,0,3.12L8,102.22A2.19,2.19,0,0,1,6.38,102.88Z"/><path class="cls-2" d="M606,361a2.24,2.24,0,0,1-1.66-.75L600,355.36a2.2,2.2,0,0,1,.19-3.11l4.92-4.34a2.21,2.21,0,1,1,2.92,3.32l-3.26,2.87,2.88,3.26A2.22,2.22,0,0,1,606,361Z"/><path class="cls-2" d="M560.85,346.94a2.18,2.18,0,0,1-1.24-.38,2.21,2.21,0,0,1-.59-3.07l5.79-8.53a2.22,2.22,0,0,1,3.07-.59l8.53,5.79a2.21,2.21,0,0,1-2.48,3.66l-6.7-4.55-4.55,6.7A2.22,2.22,0,0,1,560.85,346.94Z"/><path class="cls-2" d="M354.33,462a2.16,2.16,0,0,1-1.17-.33,2.21,2.21,0,0,1-.7-3.05L362.86,442a2.21,2.21,0,0,1,3.05-.7l16.65,10.4a2.21,2.21,0,0,1-2.34,3.75l-14.78-9.24L356.2,461A2.19,2.19,0,0,1,354.33,462Z"/><path class="cls-2" d="M485.16,215.07a2.19,2.19,0,0,1-1.42-.52L460.36,195a2.17,2.17,0,0,1-.78-1.5,2.2,2.2,0,0,1,.51-1.61l19.6-23.38a2.21,2.21,0,0,1,3.38,2.84L464.89,193l21.69,18.18a2.21,2.21,0,0,1-1.42,3.9Z"/><path class="cls-2" d="M411.16,613.75H411a2.21,2.21,0,0,1-2.08-2.33l.5-9a2.21,2.21,0,0,1,2.32-2.09l9,.5a2.21,2.21,0,0,1-.24,4.41l-6.83-.38-.38,6.84A2.2,2.2,0,0,1,411.16,613.75Z"/></g></g></g></svg>